<svg width="368" height="151" viewBox="0 0 368 151" fill="none" xmlns="http://www.w3.org/2000/svg">
<path d="M0.000444502 120.455V99.5028L61.7192 1.98863H79.1908V31.8182H68.5374L26.9891 97.6562V98.7926H113.14V120.455H0.000444502ZM69.3896 147.443V114.062L69.6737 104.687V1.98863H94.5317V147.443H69.3896ZM183.596 150.213C171.901 150.213 161.863 147.254 153.482 141.335C145.149 135.369 138.733 126.776 134.235 115.554C129.784 104.285 127.559 90.7197 127.559 74.8579C127.606 58.9962 129.855 45.5019 134.306 34.375C138.804 23.2007 145.22 14.678 153.553 8.80681C161.934 2.9356 171.948 -1.09673e-05 183.596 -1.09673e-05C195.243 -1.09673e-05 205.258 2.9356 213.638 8.80681C222.019 14.678 228.435 23.2007 232.885 34.375C237.383 45.5492 239.633 59.0436 239.633 74.8579C239.633 90.767 237.383 104.356 232.885 115.625C228.435 126.847 222.019 135.417 213.638 141.335C205.305 147.254 195.291 150.213 183.596 150.213ZM183.596 127.983C192.687 127.983 199.86 123.509 205.116 114.56C210.419 105.563 213.07 92.3295 213.07 74.8579C213.07 63.3049 211.863 53.5985 209.448 45.7386C207.033 37.8788 203.624 31.9602 199.221 27.983C194.817 23.9583 189.609 21.946 183.596 21.946C174.552 21.946 167.402 26.4441 162.147 35.4403C156.891 44.3892 154.24 57.5284 154.192 74.8579C154.145 86.4583 155.305 96.2121 157.672 104.119C160.087 112.027 163.496 117.992 167.9 122.017C172.303 125.994 177.535 127.983 183.596 127.983ZM254.602 120.455V99.5028L316.321 1.98863H333.792V31.8182H323.139L281.591 97.6562V98.7926H367.741V120.455H254.602ZM323.991 147.443V114.062L324.275 104.687V1.98863H349.133V147.443H323.991Z" fill="url(#paint0_linear_100_492)"/>
<defs>
<linearGradient id="paint0_linear_100_492" x1="183.604" y1="-12.0568" x2="183.604" y2="147.443" gradientUnits="userSpaceOnUse">
<stop stop-color="#313D2C" stop-opacity="0.54"/>
<stop offset="1" stop-color="#313D2C" stop-opacity="0"/>
</linearGradient>
</defs>
</svg>
