<svg width="35" height="52" viewBox="0 0 35 52" fill="none" xmlns="http://www.w3.org/2000/svg">
<path d="M17.5 52C13.9888 52 10.9983 50.8047 8.52833 48.4142C6.0584 46.0231 4.82344 43.1073 4.82344 39.6666V13.4442C3.48128 13.4442 2.34184 12.9896 1.4051 12.0806C0.468367 11.1711 0 10.0517 0 8.72228V4.7775C0 3.44813 0.468367 2.31954 1.4051 1.39172C2.34184 0.463909 3.48128 0 4.82344 0H30.1204C31.4626 0 32.6115 0.463909 33.5672 1.39172C34.5224 2.31954 35 3.44813 35 4.7775V8.72228C35 10.0517 34.5224 11.1711 33.5672 12.0806C32.6115 12.9896 31.4626 13.4442 30.1204 13.4442V40.5001C29.8958 43.7554 28.5673 46.4858 26.1348 48.6915C23.7023 50.8972 20.824 52 17.5 52ZM4.82344 10.5553H30.1204C30.644 10.5553 31.1019 10.3795 31.4942 10.0281C31.8869 9.67609 32.0833 9.24084 32.0833 8.72228V4.7775C32.0833 4.25895 31.8869 3.81454 31.4942 3.44428C31.1019 3.07402 30.644 2.88889 30.1204 2.88889H4.82344C4.2999 2.88889 3.85122 3.07402 3.4774 3.44428C3.10358 3.81454 2.91667 4.25895 2.91667 4.7775V8.72228C2.91667 9.24084 3.10358 9.67609 3.4774 10.0281C3.85122 10.3795 4.2999 10.5553 4.82344 10.5553ZM17.5 49.1111C20.1921 49.1111 22.4824 48.2038 24.3709 46.3891C26.2595 44.5744 27.2038 42.3335 27.2038 39.6666V37.4999H17.8923V34.6111H27.2038V26.3886H17.8923V23.4997H27.2038V13.4442H7.7401V39.6666C7.7401 42.3335 8.69361 44.5744 10.6006 46.3891C12.5081 48.2038 14.8079 49.1111 17.5 49.1111Z" fill="white"/>
</svg>
