<svg width="44" height="49" viewBox="0 0 44 49" fill="none" xmlns="http://www.w3.org/2000/svg">
<path d="M19.3018 3.31396C19.992 0.895399 23.4201 0.895397 24.1104 3.31396L25.8857 9.53467C26.7004 12.3887 29.6327 14.0815 32.5117 13.3599L38.7861 11.7876C41.2257 11.1761 42.9394 14.1436 41.1904 15.9507L36.6904 20.5991C34.6263 22.7316 34.6263 26.117 36.6904 28.2495L41.1904 32.8979C42.9394 34.705 41.2257 37.6725 38.7861 37.061L32.5117 35.4888C29.6327 34.7671 26.7004 36.4599 25.8857 39.314L24.1104 45.5347C23.4201 47.9532 19.992 47.9532 19.3018 45.5347L17.5264 39.314C16.7117 36.4599 13.7794 34.7671 10.9004 35.4888L4.62598 37.061C2.18646 37.6725 0.472737 34.705 2.22168 32.8979L6.72168 28.2495C8.78582 26.117 8.78581 22.7316 6.72168 20.5991L2.22168 15.9507C0.472736 14.1436 2.18646 11.1761 4.62598 11.7876L10.9004 13.3599C13.7794 14.0815 16.7117 12.3887 17.5264 9.53467L19.3018 3.31396Z" stroke="white" stroke-width="3"/>
</svg>
