<svg width="20" height="20" viewBox="0 0 20 20" fill="none" xmlns="http://www.w3.org/2000/svg">
<path d="M6.08979 17.0833C5.67549 17.0833 5.32083 16.9358 5.02583 16.6408C4.73083 16.3458 4.58333 15.9912 4.58333 15.5769V4.99999H4.375C4.19792 4.99999 4.04951 4.94006 3.92979 4.8202C3.80993 4.70034 3.75 4.55187 3.75 4.37478C3.75 4.19756 3.80993 4.04916 3.92979 3.92958C4.04951 3.80985 4.19792 3.74999 4.375 3.74999H7.5C7.5 3.54596 7.57188 3.37208 7.71563 3.22833C7.85924 3.08472 8.03306 3.01291 8.23708 3.01291H11.7629C11.9669 3.01291 12.1408 3.08472 12.2844 3.22833C12.4281 3.37208 12.5 3.54596 12.5 3.74999H15.625C15.8021 3.74999 15.9505 3.80992 16.0702 3.92978C16.1901 4.04965 16.25 4.19812 16.25 4.3752C16.25 4.55242 16.1901 4.70083 16.0702 4.82041C15.9505 4.94013 15.8021 4.99999 15.625 4.99999H15.4167V15.5769C15.4167 15.9912 15.2692 16.3458 14.9742 16.6408C14.6792 16.9358 14.3245 17.0833 13.9102 17.0833H6.08979ZM14.1667 4.99999H5.83333V15.5769C5.83333 15.6517 5.85736 15.7132 5.90542 15.7612C5.95347 15.8093 6.01493 15.8333 6.08979 15.8333H13.9102C13.9851 15.8333 14.0465 15.8093 14.0946 15.7612C14.1426 15.7132 14.1667 15.6517 14.1667 15.5769V4.99999ZM8.46188 14.1667C8.63896 14.1667 8.78736 14.1068 8.90708 13.9871C9.02667 13.8672 9.08646 13.7187 9.08646 13.5417V7.29166C9.08646 7.11458 9.02653 6.9661 8.90667 6.84624C8.78694 6.72652 8.63847 6.66666 8.46125 6.66666C8.28417 6.66666 8.13576 6.72652 8.01604 6.84624C7.89646 6.9661 7.83667 7.11458 7.83667 7.29166V13.5417C7.83667 13.7187 7.89653 13.8672 8.01625 13.9871C8.13611 14.1068 8.28465 14.1667 8.46188 14.1667ZM11.5387 14.1667C11.7158 14.1667 11.8642 14.1068 11.984 13.9871C12.1035 13.8672 12.1633 13.7187 12.1633 13.5417V7.29166C12.1633 7.11458 12.1035 6.9661 11.9837 6.84624C11.8639 6.72652 11.7153 6.66666 11.5381 6.66666C11.361 6.66666 11.2126 6.72652 11.0929 6.84624C10.9733 6.9661 10.9135 7.11458 10.9135 7.29166V13.5417C10.9135 13.7187 10.9735 13.8672 11.0933 13.9871C11.2131 14.1068 11.3615 14.1667 11.5387 14.1667Z" fill="#DB3939"/>
</svg>
