<svg width="43" height="50" viewBox="0 0 43 50" fill="none" xmlns="http://www.w3.org/2000/svg">
<path d="M37.2611 0.00122679C36.018 -0.0325385 34.8592 0.632845 34.2494 1.73119C32.3887 4.15434 29.8084 5.90814 26.8889 6.73242C21.9597 8.25187 17.7872 11.6185 15.2207 16.1452C10.1089 17.1244 5.6898 20.3539 3.1605 24.9579C0.578249 30.1956 0.317438 36.2952 2.43896 41.7373C1.41153 43.8725 0.607663 46.109 0.0390603 48.413C-0.13152 49.0923 0.272384 49.7855 0.942961 49.9603C1.04492 49.9861 1.1508 49.998 1.25668 50C1.82919 50 2.32722 49.6067 2.47038 49.0446C2.93899 47.1438 3.57034 45.2887 4.3605 43.5013C7.71138 45.126 11.3701 45.994 15.0835 46.0437C19.7657 46.1767 24.3068 44.415 27.7029 41.1457C29.7087 39.3899 30.6773 36.7105 30.2656 34.0572C42.1556 27.1471 46.1476 15.0634 40.4199 3.01065C39.5651 1.13766 38.5042 0.124378 37.2611 0.00122679ZM28.1242 32.3525C27.8281 32.5094 27.6085 32.7815 27.5105 33.1052C27.4144 33.429 27.4477 33.7786 27.6065 34.0765C28.3418 35.4689 27.6791 37.5424 25.9125 39.3676C22.0773 43.3262 14.3778 45.3264 5.53455 41.2287C8.50506 36.1758 12.505 34.0802 16.9437 31.7804C22.1062 29.101 27.9569 26.0662 32.3042 17.5433C32.6219 16.9196 32.3807 16.1529 31.765 15.8292C31.1494 15.5074 30.3925 15.7517 30.0749 16.3754C26.0985 24.1712 20.8632 26.8961 15.7991 29.5218C11.66 31.6689 7.4327 33.8795 4.14246 38.7617V38.7637C3.02287 34.5489 3.46012 30.0679 5.36986 26.1572C7.66586 22.0617 11.6793 19.2512 16.2716 18.5201C16.6226 18.4486 16.9265 18.2301 17.1088 17.9182C19.3734 13.6618 23.2145 10.49 27.7867 9.10346C31.1611 8.10839 34.1373 6.05067 36.2806 3.23015C36.7531 2.5727 37.0178 2.53101 37.0218 2.53101C37.108 2.53101 37.5747 2.82496 38.155 4.09612C43.4822 15.3261 39.6413 26.1489 28.1242 32.3517L28.1242 32.3525Z" fill="white"/>
</svg>
