<svg width="28" height="28" viewBox="0 0 28 28" fill="none" xmlns="http://www.w3.org/2000/svg">
<path d="M7.35904 25.0834C6.76968 25.0834 6.27083 24.8792 5.8625 24.4709C5.45417 24.0625 5.25 23.5637 5.25 22.9743V9.6924C5.25 9.10303 5.45417 8.60419 5.8625 8.19585C6.27083 7.78752 6.76968 7.58335 7.35904 7.58335H9.625V7.29169C9.625 6.08321 10.052 5.05188 10.906 4.19769C11.7602 3.34369 12.7915 2.91669 14 2.91669C15.2085 2.91669 16.2398 3.34369 17.094 4.19769C17.948 5.05188 18.375 6.08321 18.375 7.29169V7.58335H20.641C21.2303 7.58335 21.7292 7.78752 22.1375 8.19585C22.5458 8.60419 22.75 9.10303 22.75 9.6924V22.9743C22.75 23.5637 22.5458 24.0625 22.1375 24.4709C21.7292 24.8792 21.2303 25.0834 20.641 25.0834H7.35904ZM7.35904 23.3334H20.641C20.7308 23.3334 20.813 23.2959 20.8877 23.2211C20.9626 23.1464 21 23.0641 21 22.9743V9.6924C21 9.60256 20.9626 9.52031 20.8877 9.44564C20.813 9.37078 20.7308 9.33335 20.641 9.33335H18.375V11.9584C18.375 12.2067 18.2912 12.4145 18.1236 12.5819C17.9562 12.7495 17.7483 12.8334 17.5 12.8334C17.2517 12.8334 17.0438 12.7495 16.8764 12.5819C16.7088 12.4145 16.625 12.2067 16.625 11.9584V9.33335H11.375V11.9584C11.375 12.2067 11.2912 12.4145 11.1236 12.5819C10.9562 12.7495 10.7483 12.8334 10.5 12.8334C10.2517 12.8334 10.0438 12.7495 9.87642 12.5819C9.70881 12.4145 9.625 12.2067 9.625 11.9584V9.33335H7.35904C7.26921 9.33335 7.18696 9.37078 7.11229 9.44564C7.03743 9.52031 7 9.60256 7 9.6924V22.9743C7 23.0641 7.03743 23.1464 7.11229 23.2211C7.18696 23.2959 7.26921 23.3334 7.35904 23.3334ZM11.375 7.58335H16.625V7.29169C16.625 6.56038 16.3704 5.94001 15.8611 5.43056C15.3519 4.92131 14.7315 4.66669 14 4.66669C13.2685 4.66669 12.6481 4.92131 12.1389 5.43056C11.6296 5.94001 11.375 6.56038 11.375 7.29169V7.58335Z" fill="white"/>
</svg>
