<svg width="256" height="256" viewBox="0 0 256 256" fill="none" xmlns="http://www.w3.org/2000/svg">
<g clip-path="url(#clip0_4123_732)">
<rect width="256" height="256" rx="25.6" fill="#202C22"/>
<path d="M74.1356 165.188C74.1356 150.921 76.2337 136.731 80.4299 122.616C84.7023 108.502 89.8522 95.8752 95.8794 84.7363C101.907 73.5211 109.345 64.0225 118.195 56.2405C127.122 48.3822 136.353 44.4531 145.89 44.4531C152.451 44.4531 159.242 46.6275 166.261 50.9762C171.143 53.9517 174.5 58.6437 176.331 65.0524C178.239 71.4611 179.192 80.9216 179.192 93.4338C179.192 105.946 176.446 122.578 170.953 143.33C165.994 162.556 158.669 179.264 148.98 193.455C143.792 200.856 137.65 206.616 130.555 210.736C123.46 214.856 116.593 216.992 109.956 217.144C103.318 217.297 96.9475 215.733 90.844 212.452C79.7051 206.73 74.1356 190.976 74.1356 165.188ZM100.228 125.821C95.8031 140.316 93.5524 153.515 93.4761 165.417C93.3998 177.243 94.7731 186.169 97.596 192.196C100.419 198.224 104.081 201.237 108.582 201.237C116.898 201.237 124.184 197.155 130.441 188.992C138.07 178.387 145.394 161.679 152.413 138.867C158.822 116.97 161.187 98.9651 159.509 84.8507C157.906 70.7363 153.062 63.6791 144.975 63.6791C136.353 63.6791 128.686 68.0279 121.972 76.7254C113.732 87.7117 106.484 104.077 100.228 125.821Z" fill="white"/>
</g>
<defs>
<clipPath id="clip0_4123_732">
<rect width="256" height="256" rx="25.6" fill="white"/>
</clipPath>
</defs>
</svg>
