<svg width="32" height="32" viewBox="0 0 32 32" fill="none" xmlns="http://www.w3.org/2000/svg">
<rect width="32" height="32" rx="3.2" fill="#202C22"/>
<path d="M9.26692 20.6485C9.26692 18.8652 9.52918 17.0913 10.0537 15.327C10.5878 13.5627 11.2315 11.9844 11.9849 10.592C12.7383 9.19013 13.6681 8.00281 14.7744 7.03006C15.8902 6.04778 17.0441 5.55663 18.2362 5.55663C19.0564 5.55663 19.9052 5.82843 20.7825 6.37203C21.3929 6.74396 21.8125 7.33047 22.0414 8.13155C22.2798 8.93264 22.399 10.1152 22.399 11.6792C22.399 13.2432 22.0557 15.3223 21.369 17.9163C20.7492 20.3195 19.8336 22.4081 18.6225 24.1819C17.974 25.107 17.2063 25.827 16.3193 26.342C15.4324 26.8569 14.5741 27.124 13.7444 27.1431C12.9147 27.1621 12.1184 26.9666 11.3555 26.5565C9.9631 25.8413 9.26692 23.8719 9.26692 20.6485ZM12.5285 15.7276C11.9754 17.5396 11.694 19.1894 11.6845 20.6771C11.6749 22.1553 11.8466 23.2711 12.1995 24.0245C12.5523 24.7779 13.0101 25.1546 13.5728 25.1546C14.6123 25.1546 15.523 24.6444 16.305 23.624C17.2587 22.2984 18.1742 20.2098 19.0516 17.3584C19.8527 14.6213 20.1483 12.3706 19.9385 10.6063C19.7383 8.84204 19.1327 7.95989 18.1218 7.95989C17.0441 7.95989 16.0857 8.50349 15.2465 9.59068C14.2165 10.964 13.3105 13.0096 12.5285 15.7276Z" fill="white"/>
</svg>
